<?xml version="1.0" standalone="no"?>
<!DOCTYPE svg PUBLIC "-//W3C//DTD SVG 20010904//EN"
 "http://www.w3.org/TR/2001/REC-SVG-20010904/DTD/svg10.dtd">
<svg version="1.0" xmlns="http://www.w3.org/2000/svg"
 width="512.000000pt" height="512.000000pt" viewBox="0 0 512.000000 512.000000"
 preserveAspectRatio="xMidYMid meet">

<g transform="translate(0.000000,512.000000) scale(0.100000,-0.100000)"
fill="#000000" stroke="none">
<path d="M1654 5101 c-17 -11 -36 -34 -43 -52 -8 -23 -11 -400 -11 -1365 l0
-1334 -591 0 c-517 0 -595 -2 -624 -16 -42 -20 -69 -73 -60 -117 6 -26 224
-250 1083 -1110 593 -593 1090 -1085 1106 -1094 71 -37 8 -94 1188 1085 868
869 1087 1093 1093 1119 9 44 -18 97 -60 117 -29 14 -107 16 -624 16 l-591 0
0 1350 0 1350 -29 32 -29 33 -889 3 c-859 2 -889 1 -919 -17z"/>
</g>
</svg>
